<?xml version="1.0" encoding="UTF-8" standalone="yes"?><svg xmlns="http://www.w3.org/2000/svg" xmlns:xlink="http://www.w3.org/1999/xlink" height="475pt" style="width:664px;height:475px;" version="1.1" viewBox="0 0 664 475" width="664pt"><defs><filter height="300%" id="f1" width="300%" x="-1" y="-1"><feGaussianBlur result="blurOut" stdDeviation="2.0"/><feColorMatrix in="blurOut" result="blurOut2" type="matrix" values="0 0 0 0 0 0 0 0 0 0 0 0 0 0 0 0 0 0 .4 0"/><feOffset dx="4.0" dy="4.0" in="blurOut2" result="blurOut3"/><feBlend in="SourceGraphic" in2="blurOut3" mode="normal"/></filter></defs><g><rect fill="#98FB98" filter="url(#f1)" height="125.7305" style="stroke: #696969; stroke-width: 1.5;" width="116" x="68.5" y="341"/><ellipse cx="97" cy="357" fill="#ADD1B2" rx="11" ry="11" style="stroke: #696969; stroke-width: 1.0;"/><path d="M99.9731,362.6431 Q99.3921,362.9419 98.7529,363.0913 Q98.1138,363.2407 97.4082,363.2407 Q94.9014,363.2407 93.5815,361.5889 Q92.2617,359.937 92.2617,356.8159 Q92.2617,353.6865 93.5815,352.0347 Q94.9014,350.3828 97.4082,350.3828 Q98.1138,350.3828 98.7612,350.5322 Q99.4087,350.6816 99.9731,350.9805 L99.9731,353.7031 Q99.3423,353.1221 98.7488,352.8523 Q98.1553,352.5825 97.5244,352.5825 Q96.1797,352.5825 95.4949,353.6492 Q94.8101,354.7158 94.8101,356.8159 Q94.8101,358.9077 95.4949,359.9744 Q96.1797,361.041 97.5244,361.041 Q98.1553,361.041 98.7488,360.7712 Q99.3423,360.5015 99.9731,359.9204 Z "/><text fill="#000000" font-family="sans-serif" font-size="12" lengthAdjust="spacingAndGlyphs" textLength="54" x="114" y="361.5352">Definition</text><line style="stroke: #696969; stroke-width: 1.5;" x1="69.5" x2="183.5" y1="373" y2="373"/><rect fill="none" height="6" style="stroke: #C82930; stroke-width: 1.0;" width="6" x="76.5" y="381.9775"/><text fill="#000000" font-family="sans-serif" font-size="11" lengthAdjust="spacingAndGlyphs" textLength="29" x="88.5" y="387.6348">name</text><text fill="#000000" font-family="sans-serif" font-size="11" font-weight="bold" lengthAdjust="spacingAndGlyphs" textLength="36" x="120.5" y="387.6348">:String</text><rect fill="none" height="6" style="stroke: #C82930; stroke-width: 1.0;" width="6" x="76.5" y="394.9326"/><text fill="#000000" font-family="sans-serif" font-size="11" lengthAdjust="spacingAndGlyphs" textLength="40" x="88.5" y="400.5898">domain</text><text fill="#000000" font-family="sans-serif" font-size="11" font-weight="bold" lengthAdjust="spacingAndGlyphs" textLength="36" x="131.5" y="400.5898">:String</text><rect fill="none" height="6" style="stroke: #C82930; stroke-width: 1.0;" width="6" x="76.5" y="407.8877"/><text fill="#000000" font-family="sans-serif" font-size="11" lengthAdjust="spacingAndGlyphs" textLength="51" x="88.5" y="413.5449">definition</text><text fill="#000000" font-family="sans-serif" font-size="11" font-weight="bold" lengthAdjust="spacingAndGlyphs" textLength="36" x="142.5" y="413.5449">:String</text><rect fill="none" height="6" style="stroke: #C82930; stroke-width: 1.0;" width="6" x="76.5" y="420.8428"/><text fill="#000000" font-family="sans-serif" font-size="11" lengthAdjust="spacingAndGlyphs" textLength="49" x="88.5" y="426.5">guidance</text><text fill="#000000" font-family="sans-serif" font-size="11" font-weight="bold" lengthAdjust="spacingAndGlyphs" textLength="36" x="140.5" y="426.5">:String</text><rect fill="none" height="6" style="stroke: #C82930; stroke-width: 1.0;" width="6" x="76.5" y="433.7979"/><text fill="#000000" font-family="sans-serif" font-size="11" lengthAdjust="spacingAndGlyphs" textLength="48" x="88.5" y="439.4551">identifier</text><text fill="#000000" font-family="sans-serif" font-size="11" font-weight="bold" lengthAdjust="spacingAndGlyphs" textLength="20" x="139.5" y="439.4551">:Uri</text><rect fill="none" height="6" style="stroke: #C82930; stroke-width: 1.0;" width="6" x="76.5" y="446.7529"/><text fill="#000000" font-family="sans-serif" font-size="11" lengthAdjust="spacingAndGlyphs" textLength="32" x="88.5" y="452.4102">usage</text><text fill="#000000" font-family="sans-serif" font-size="11" font-weight="bold" lengthAdjust="spacingAndGlyphs" textLength="44" x="123.5" y="452.4102">:String[]</text><line style="stroke: #696969; stroke-width: 1.5;" x1="69.5" x2="183.5" y1="458.7305" y2="458.7305"/><rect fill="#98FB98" filter="url(#f1)" height="138.6855" style="stroke: #696969; stroke-width: 1.5;" width="174" x="177.5" y="142"/><ellipse cx="239.75" cy="158" fill="#ADD1B2" rx="11" ry="11" style="stroke: #696969; stroke-width: 1.0;"/><path d="M242.7231,163.6431 Q242.1421,163.9419 241.5029,164.0913 Q240.8638,164.2407 240.1582,164.2407 Q237.6514,164.2407 236.3315,162.5889 Q235.0117,160.937 235.0117,157.8159 Q235.0117,154.6865 236.3315,153.0347 Q237.6514,151.3828 240.1582,151.3828 Q240.8638,151.3828 241.5112,151.5322 Q242.1587,151.6816 242.7231,151.9805 L242.7231,154.7031 Q242.0923,154.1221 241.4988,153.8523 Q240.9053,153.5825 240.2744,153.5825 Q238.9297,153.5825 238.2449,154.6492 Q237.5601,155.7158 237.5601,157.8159 Q237.5601,159.9077 238.2449,160.9744 Q238.9297,162.041 240.2744,162.041 Q240.9053,162.041 241.4988,161.7712 Q242.0923,161.5015 242.7231,160.9204 Z "/><text fill="#000000" font-family="sans-serif" font-size="12" lengthAdjust="spacingAndGlyphs" textLength="41" x="260.25" y="162.5352">Results</text><line style="stroke: #696969; stroke-width: 1.5;" x1="178.5" x2="350.5" y1="174" y2="174"/><rect fill="none" height="6" style="stroke: #C82930; stroke-width: 1.0;" width="6" x="185.5" y="182.9775"/><text fill="#000000" font-family="sans-serif" font-size="11" lengthAdjust="spacingAndGlyphs" textLength="41" x="197.5" y="188.6348">content</text><text fill="#000000" font-family="sans-serif" font-size="11" font-weight="bold" lengthAdjust="spacingAndGlyphs" textLength="68" x="241.5" y="188.6348">:Definition[]</text><rect fill="none" height="6" style="stroke: #C82930; stroke-width: 1.0;" width="6" x="185.5" y="195.9326"/><text fill="#000000" font-family="sans-serif" font-size="11" lengthAdjust="spacingAndGlyphs" textLength="103" x="197.5" y="201.5898">numberOfElements</text><text fill="#000000" font-family="sans-serif" font-size="11" font-weight="bold" lengthAdjust="spacingAndGlyphs" textLength="42" x="303.5" y="201.5898">:Integer</text><rect fill="none" height="6" style="stroke: #C82930; stroke-width: 1.0;" width="6" x="185.5" y="208.8877"/><text fill="#000000" font-family="sans-serif" font-size="11" lengthAdjust="spacingAndGlyphs" textLength="47" x="197.5" y="214.5449">firstPage</text><text fill="#000000" font-family="sans-serif" font-size="11" font-weight="bold" lengthAdjust="spacingAndGlyphs" textLength="47" x="247.5" y="214.5449">:Boolean</text><rect fill="none" height="6" style="stroke: #C82930; stroke-width: 1.0;" width="6" x="185.5" y="221.8428"/><text fill="#000000" font-family="sans-serif" font-size="11" lengthAdjust="spacingAndGlyphs" textLength="44" x="197.5" y="227.5">lastPage</text><text fill="#000000" font-family="sans-serif" font-size="11" font-weight="bold" lengthAdjust="spacingAndGlyphs" textLength="47" x="244.5" y="227.5">:Boolean</text><rect fill="none" height="6" style="stroke: #C82930; stroke-width: 1.0;" width="6" x="185.5" y="234.7979"/><text fill="#000000" font-family="sans-serif" font-size="11" lengthAdjust="spacingAndGlyphs" textLength="55" x="197.5" y="240.4551">totalPages</text><text fill="#000000" font-family="sans-serif" font-size="11" font-weight="bold" lengthAdjust="spacingAndGlyphs" textLength="42" x="255.5" y="240.4551">:Integer</text><rect fill="none" height="6" style="stroke: #C82930; stroke-width: 1.0;" width="6" x="185.5" y="247.7529"/><text fill="#000000" font-family="sans-serif" font-size="11" lengthAdjust="spacingAndGlyphs" textLength="10" x="197.5" y="253.4102">id</text><text fill="#000000" font-family="sans-serif" font-size="11" font-weight="bold" lengthAdjust="spacingAndGlyphs" textLength="35" x="210.5" y="253.4102">:Link[]</text><rect fill="none" height="6" style="stroke: #C82930; stroke-width: 1.0;" width="6" x="185.5" y="260.708"/><text fill="#000000" font-family="sans-serif" font-size="11" lengthAdjust="spacingAndGlyphs" textLength="25" x="197.5" y="266.3652">links</text><text fill="#000000" font-family="sans-serif" font-size="11" font-weight="bold" lengthAdjust="spacingAndGlyphs" textLength="35" x="225.5" y="266.3652">:Link[]</text><line style="stroke: #696969; stroke-width: 1.5;" x1="178.5" x2="350.5" y1="272.6855" y2="272.6855"/><rect fill="#98FB98" filter="url(#f1)" height="73.9102" style="stroke: #696969; stroke-width: 1.5;" width="87" x="221" y="367"/><ellipse cx="250.4" cy="383" fill="#ADD1B2" rx="11" ry="11" style="stroke: #696969; stroke-width: 1.0;"/><path d="M253.3731,388.6431 Q252.7921,388.9419 252.1529,389.0913 Q251.5138,389.2407 250.8082,389.2407 Q248.3014,389.2407 246.9815,387.5889 Q245.6617,385.937 245.6617,382.8159 Q245.6617,379.6865 246.9815,378.0347 Q248.3014,376.3828 250.8082,376.3828 Q251.5138,376.3828 252.1612,376.5322 Q252.8087,376.6816 253.3731,376.9805 L253.3731,379.7031 Q252.7423,379.1221 252.1488,378.8523 Q251.5553,378.5825 250.9244,378.5825 Q249.5797,378.5825 248.8949,379.6492 Q248.2101,380.7158 248.2101,382.8159 Q248.2101,384.9077 248.8949,385.9744 Q249.5797,387.041 250.9244,387.041 Q251.5553,387.041 252.1488,386.7712 Q252.7423,386.5015 253.3731,385.9204 Z "/><text fill="#000000" font-family="sans-serif" font-size="12" lengthAdjust="spacingAndGlyphs" textLength="23" x="267.6" y="387.5352">Link</text><line style="stroke: #696969; stroke-width: 1.5;" x1="222" x2="307" y1="399" y2="399"/><rect fill="none" height="6" style="stroke: #C82930; stroke-width: 1.0;" width="6" x="229" y="407.9775"/><text fill="#000000" font-family="sans-serif" font-size="11" lengthAdjust="spacingAndGlyphs" textLength="14" x="241" y="413.6348">rel</text><text fill="#000000" font-family="sans-serif" font-size="11" font-weight="bold" lengthAdjust="spacingAndGlyphs" textLength="36" x="258" y="413.6348">:String</text><rect fill="none" height="6" style="stroke: #C82930; stroke-width: 1.0;" width="6" x="229" y="420.9326"/><text fill="#000000" font-family="sans-serif" font-size="11" lengthAdjust="spacingAndGlyphs" textLength="22" x="241" y="426.5898">href</text><text fill="#000000" font-family="sans-serif" font-size="11" font-weight="bold" lengthAdjust="spacingAndGlyphs" textLength="36" x="266" y="426.5898">:String</text><line style="stroke: #696969; stroke-width: 1.5;" x1="222" x2="307" y1="432.9102" y2="432.9102"/><rect fill="#98FB98" filter="url(#f1)" height="73.9102" style="stroke: #696969; stroke-width: 1.5;" width="237" x="6" y="8"/><ellipse cx="80.75" cy="24" fill="#B4A7E5" rx="11" ry="11" style="stroke: #696969; stroke-width: 1.0;"/><path d="M76.6777,19.7651 L76.6777,17.6069 L84.0571,17.6069 L84.0571,19.7651 L81.5918,19.7651 L81.5918,27.8418 L84.0571,27.8418 L84.0571,30 L76.6777,30 L76.6777,27.8418 L79.1431,27.8418 L79.1431,19.7651 Z "/><text fill="#000000" font-family="sans-serif" font-size="12" font-style="italic" lengthAdjust="spacingAndGlyphs" textLength="79" x="101.25" y="28.5352">DefinitionsApi</text><line style="stroke: #696969; stroke-width: 1.5;" x1="7" x2="242" y1="40" y2="40"/><line style="stroke: #696969; stroke-width: 1.5;" x1="7" x2="242" y1="48" y2="48"/><ellipse cx="17" cy="59.9775" fill="#84BE84" rx="3" ry="3" style="stroke: #038048; stroke-width: 1.0;"/><text fill="#000000" font-family="sans-serif" font-size="11" font-style="italic" lengthAdjust="spacingAndGlyphs" textLength="151" x="26" y="62.6348">null(String domain,String id)</text><text fill="#000000" font-family="sans-serif" font-size="11" font-weight="bold" lengthAdjust="spacingAndGlyphs" textLength="60" x="177" y="62.6348">:Definition</text><ellipse cx="17" cy="72.9326" fill="#84BE84" rx="3" ry="3" style="stroke: #038048; stroke-width: 1.0;"/><text fill="#000000" font-family="sans-serif" font-size="11" font-style="italic" lengthAdjust="spacingAndGlyphs" textLength="160" x="26" y="75.5898">null(Integer page,Integer size)</text><text fill="#000000" font-family="sans-serif" font-size="11" font-weight="bold" lengthAdjust="spacingAndGlyphs" textLength="44" x="186" y="75.5898">:Results</text><rect fill="#98FB98" filter="url(#f1)" height="60.9551" style="stroke: #696969; stroke-width: 1.5;" width="377" x="278" y="14.5"/><ellipse cx="433.75" cy="30.5" fill="#B4A7E5" rx="11" ry="11" style="stroke: #696969; stroke-width: 1.0;"/><path d="M429.6777,26.2651 L429.6777,24.1069 L437.0571,24.1069 L437.0571,26.2651 L434.5918,26.2651 L434.5918,34.3418 L437.0571,34.3418 L437.0571,36.5 L429.6777,36.5 L429.6777,34.3418 L432.1431,34.3418 L432.1431,26.2651 Z "/><text fill="#000000" font-family="sans-serif" font-size="12" font-style="italic" lengthAdjust="spacingAndGlyphs" textLength="57" x="454.25" y="35.0352">SearchApi</text><line style="stroke: #696969; stroke-width: 1.5;" x1="279" x2="654" y1="46.5" y2="46.5"/><line style="stroke: #696969; stroke-width: 1.5;" x1="279" x2="654" y1="54.5" y2="54.5"/><ellipse cx="289" cy="66.4775" fill="#84BE84" rx="3" ry="3" style="stroke: #038048; stroke-width: 1.0;"/><text fill="#000000" font-family="sans-serif" font-size="11" font-style="italic" lengthAdjust="spacingAndGlyphs" textLength="307" x="298" y="69.1348">null(String query,String domain,Integer page,Integer size)</text><text fill="#000000" font-family="sans-serif" font-size="11" font-weight="bold" lengthAdjust="spacingAndGlyphs" textLength="44" x="605" y="69.1348">:Results</text><path d="M206.8634,291.8988 C195.1465,308.2432 182.9799,325.2146 171.7659,340.8574 " fill="none" style="stroke: #4169E1; stroke-width: 1.0;"/><polygon fill="#4169E1" points="214.4837,281.2691,207.7369,283.8149,207.492,291.0218,214.2388,288.476,214.4837,281.2691" style="stroke: #4169E1; stroke-width: 1.0;"/><text fill="#000000" font-family="sans-serif" font-size="13" lengthAdjust="spacingAndGlyphs" textLength="22" x="153.7279" y="330.2912">0..*</text><path d="M264.5,294.3491 C264.5,319.6542 264.5,346.2198 264.5,366.864 " fill="none" style="stroke: #4169E1; stroke-width: 1.0;"/><polygon fill="#4169E1" points="264.5,281.2691,260.5,287.2691,264.5,293.2691,268.5,287.2691,264.5,281.2691" style="stroke: #4169E1; stroke-width: 1.0;"/><text fill="#000000" font-family="sans-serif" font-size="13" lengthAdjust="spacingAndGlyphs" textLength="22" x="240.4719" y="356.2395">0..*</text><path d="M124.7065,82.0671 C125.0389,141.7249 125.6976,259.9657 126.1175,335.3471 " fill="none" style="stroke: #4169E1; stroke-width: 1.0;"/><polygon fill="#4169E1" points="126.1473,340.6991,130.0968,331.6768,126.1193,335.6992,122.097,331.7216,126.1473,340.6991" style="stroke: #4169E1; stroke-width: 1.0;"/><path d="M155.9187,82.3658 C169.7498,98.815 186.5034,118.7397 202.6679,137.9639 " fill="none" style="stroke: #4169E1; stroke-width: 1.0;"/><polygon fill="#4169E1" points="205.8919,141.7982,203.1612,132.3355,202.674,137.9713,197.0382,137.4841,205.8919,141.7982" style="stroke: #4169E1; stroke-width: 1.0;"/><path d="M429.4501,75.5387 C407.9554,93.2558 379.8962,116.3838 353.032,138.5269 " fill="none" style="stroke: #4169E1; stroke-width: 1.0;"/><polygon fill="#4169E1" points="349.078,141.786,358.567,139.1481,352.9362,138.6058,353.4786,132.975,349.078,141.786" style="stroke: #4169E1; stroke-width: 1.0;"/></g></svg>