<?xml version="1.0" encoding="UTF-8" standalone="yes"?><svg xmlns="http://www.w3.org/2000/svg" xmlns:xlink="http://www.w3.org/1999/xlink" height="514pt" style="width:1009px;height:514px;" version="1.1" viewBox="0 0 1009 514" width="1009pt"><defs><filter height="300%" id="f1" width="300%" x="-1" y="-1"><feGaussianBlur result="blurOut" stdDeviation="2.0"/><feColorMatrix in="blurOut" result="blurOut2" type="matrix" values="0 0 0 0 0 0 0 0 0 0 0 0 0 0 0 0 0 0 .4 0"/><feOffset dx="4.0" dy="4.0" in="blurOut2" result="blurOut3"/><feBlend in="SourceGraphic" in2="blurOut3" mode="normal"/></filter></defs><g><rect fill="#98FB98" filter="url(#f1)" height="125.7305" style="stroke: #696969; stroke-width: 1.5;" width="136" x="48.5" y="233"/><ellipse cx="95.25" cy="249" fill="#ADD1B2" rx="11" ry="11" style="stroke: #696969; stroke-width: 1.0;"/><path d="M98.2231,254.6431 Q97.6421,254.9419 97.0029,255.0913 Q96.3638,255.2407 95.6582,255.2407 Q93.1514,255.2407 91.8315,253.5889 Q90.5117,251.937 90.5117,248.8159 Q90.5117,245.6865 91.8315,244.0347 Q93.1514,242.3828 95.6582,242.3828 Q96.3638,242.3828 97.0112,242.5322 Q97.6587,242.6816 98.2231,242.9805 L98.2231,245.7031 Q97.5923,245.1221 96.9988,244.8523 Q96.4053,244.5825 95.7744,244.5825 Q94.4297,244.5825 93.7449,245.6492 Q93.0601,246.7158 93.0601,248.8159 Q93.0601,250.9077 93.7449,251.9744 Q94.4297,253.041 95.7744,253.041 Q96.4053,253.041 96.9988,252.7712 Q97.5923,252.5015 98.2231,251.9204 Z "/><text fill="#000000" font-family="sans-serif" font-size="12" lengthAdjust="spacingAndGlyphs" textLength="34" x="115.75" y="253.5352">Order</text><line style="stroke: #696969; stroke-width: 1.5;" x1="49.5" x2="183.5" y1="265" y2="265"/><rect fill="none" height="6" style="stroke: #C82930; stroke-width: 1.0;" width="6" x="56.5" y="273.9775"/><text fill="#000000" font-family="sans-serif" font-size="11" lengthAdjust="spacingAndGlyphs" textLength="10" x="68.5" y="279.6348">id</text><text fill="#000000" font-family="sans-serif" font-size="11" font-weight="bold" lengthAdjust="spacingAndGlyphs" textLength="32" x="81.5" y="279.6348">:Int64</text><rect fill="none" height="6" style="stroke: #C82930; stroke-width: 1.0;" width="6" x="56.5" y="286.9326"/><text fill="#000000" font-family="sans-serif" font-size="11" lengthAdjust="spacingAndGlyphs" textLength="27" x="68.5" y="292.5898">petId</text><text fill="#000000" font-family="sans-serif" font-size="11" font-weight="bold" lengthAdjust="spacingAndGlyphs" textLength="32" x="98.5" y="292.5898">:Int64</text><rect fill="none" height="6" style="stroke: #C82930; stroke-width: 1.0;" width="6" x="56.5" y="299.8877"/><text fill="#000000" font-family="sans-serif" font-size="11" lengthAdjust="spacingAndGlyphs" textLength="44" x="68.5" y="305.5449">quantity</text><text fill="#000000" font-family="sans-serif" font-size="11" font-weight="bold" lengthAdjust="spacingAndGlyphs" textLength="32" x="115.5" y="305.5449">:Int32</text><rect fill="none" height="6" style="stroke: #C82930; stroke-width: 1.0;" width="6" x="56.5" y="312.8428"/><text fill="#000000" font-family="sans-serif" font-size="11" lengthAdjust="spacingAndGlyphs" textLength="47" x="68.5" y="318.5">shipDate</text><text fill="#000000" font-family="sans-serif" font-size="11" font-weight="bold" lengthAdjust="spacingAndGlyphs" textLength="60" x="118.5" y="318.5">:Date-time</text><rect fill="none" height="6" style="stroke: #C82930; stroke-width: 1.0;" width="6" x="56.5" y="325.7979"/><text fill="#000000" font-family="sans-serif" font-size="11" lengthAdjust="spacingAndGlyphs" textLength="33" x="68.5" y="331.4551">status</text><text fill="#000000" font-family="sans-serif" font-size="11" font-weight="bold" lengthAdjust="spacingAndGlyphs" textLength="36" x="104.5" y="331.4551">:String</text><rect fill="none" height="6" style="stroke: #C82930; stroke-width: 1.0;" width="6" x="56.5" y="338.7529"/><text fill="#000000" font-family="sans-serif" font-size="11" lengthAdjust="spacingAndGlyphs" textLength="49" x="68.5" y="344.4102">complete</text><text fill="#000000" font-family="sans-serif" font-size="11" font-weight="bold" lengthAdjust="spacingAndGlyphs" textLength="47" x="120.5" y="344.4102">:Boolean</text><line style="stroke: #696969; stroke-width: 1.5;" x1="49.5" x2="183.5" y1="350.7305" y2="350.7305"/><rect fill="#98FB98" filter="url(#f1)" height="73.9102" style="stroke: #696969; stroke-width: 1.5;" width="94" x="276.5" y="432"/><ellipse cx="296.45" cy="448" fill="#ADD1B2" rx="11" ry="11" style="stroke: #696969; stroke-width: 1.0;"/><path d="M299.4231,453.6431 Q298.8421,453.9419 298.2029,454.0913 Q297.5638,454.2407 296.8582,454.2407 Q294.3514,454.2407 293.0315,452.5889 Q291.7117,450.937 291.7117,447.8159 Q291.7117,444.6865 293.0315,443.0347 Q294.3514,441.3828 296.8582,441.3828 Q297.5638,441.3828 298.2112,441.5322 Q298.8587,441.6816 299.4231,441.9805 L299.4231,444.7031 Q298.7923,444.1221 298.1988,443.8523 Q297.6053,443.5825 296.9744,443.5825 Q295.6297,443.5825 294.9449,444.6492 Q294.2601,445.7158 294.2601,447.8159 Q294.2601,449.9077 294.9449,450.9744 Q295.6297,452.041 296.9744,452.041 Q297.6053,452.041 298.1988,451.7712 Q298.7923,451.5015 299.4231,450.9204 Z "/><text fill="#000000" font-family="sans-serif" font-size="12" lengthAdjust="spacingAndGlyphs" textLength="51" x="311.55" y="452.5352">Category</text><line style="stroke: #696969; stroke-width: 1.5;" x1="277.5" x2="369.5" y1="464" y2="464"/><rect fill="none" height="6" style="stroke: #C82930; stroke-width: 1.0;" width="6" x="284.5" y="472.9775"/><text fill="#000000" font-family="sans-serif" font-size="11" lengthAdjust="spacingAndGlyphs" textLength="10" x="296.5" y="478.6348">id</text><text fill="#000000" font-family="sans-serif" font-size="11" font-weight="bold" lengthAdjust="spacingAndGlyphs" textLength="32" x="309.5" y="478.6348">:Int64</text><rect fill="none" height="6" style="stroke: #C82930; stroke-width: 1.0;" width="6" x="284.5" y="485.9326"/><text fill="#000000" font-family="sans-serif" font-size="11" lengthAdjust="spacingAndGlyphs" textLength="29" x="296.5" y="491.5898">name</text><text fill="#000000" font-family="sans-serif" font-size="11" font-weight="bold" lengthAdjust="spacingAndGlyphs" textLength="36" x="328.5" y="491.5898">:String</text><line style="stroke: #696969; stroke-width: 1.5;" x1="277.5" x2="369.5" y1="497.9102" y2="497.9102"/><rect fill="#98FB98" filter="url(#f1)" height="151.6406" style="stroke: #696969; stroke-width: 1.5;" width="118" x="795.5" y="220"/><ellipse cx="837.5" cy="236" fill="#ADD1B2" rx="11" ry="11" style="stroke: #696969; stroke-width: 1.0;"/><path d="M840.4731,241.6431 Q839.8921,241.9419 839.2529,242.0913 Q838.6138,242.2407 837.9082,242.2407 Q835.4014,242.2407 834.0815,240.5889 Q832.7617,238.937 832.7617,235.8159 Q832.7617,232.6865 834.0815,231.0347 Q835.4014,229.3828 837.9082,229.3828 Q838.6138,229.3828 839.2612,229.5322 Q839.9087,229.6816 840.4731,229.9805 L840.4731,232.7031 Q839.8423,232.1221 839.2488,231.8523 Q838.6553,231.5825 838.0244,231.5825 Q836.6797,231.5825 835.9949,232.6492 Q835.3101,233.7158 835.3101,235.8159 Q835.3101,237.9077 835.9949,238.9744 Q836.6797,240.041 838.0244,240.041 Q838.6553,240.041 839.2488,239.7712 Q839.8423,239.5015 840.4731,238.9204 Z "/><text fill="#000000" font-family="sans-serif" font-size="12" lengthAdjust="spacingAndGlyphs" textLength="26" x="857.5" y="240.5352">User</text><line style="stroke: #696969; stroke-width: 1.5;" x1="796.5" x2="912.5" y1="252" y2="252"/><rect fill="none" height="6" style="stroke: #C82930; stroke-width: 1.0;" width="6" x="803.5" y="260.9775"/><text fill="#000000" font-family="sans-serif" font-size="11" lengthAdjust="spacingAndGlyphs" textLength="10" x="815.5" y="266.6348">id</text><text fill="#000000" font-family="sans-serif" font-size="11" font-weight="bold" lengthAdjust="spacingAndGlyphs" textLength="32" x="828.5" y="266.6348">:Int64</text><rect fill="none" height="6" style="stroke: #C82930; stroke-width: 1.0;" width="6" x="803.5" y="273.9326"/><text fill="#000000" font-family="sans-serif" font-size="11" lengthAdjust="spacingAndGlyphs" textLength="53" x="815.5" y="279.5898">username</text><text fill="#000000" font-family="sans-serif" font-size="11" font-weight="bold" lengthAdjust="spacingAndGlyphs" textLength="36" x="871.5" y="279.5898">:String</text><rect fill="none" height="6" style="stroke: #C82930; stroke-width: 1.0;" width="6" x="803.5" y="286.8877"/><text fill="#000000" font-family="sans-serif" font-size="11" lengthAdjust="spacingAndGlyphs" textLength="52" x="815.5" y="292.5449">firstName</text><text fill="#000000" font-family="sans-serif" font-size="11" font-weight="bold" lengthAdjust="spacingAndGlyphs" textLength="36" x="870.5" y="292.5449">:String</text><rect fill="none" height="6" style="stroke: #C82930; stroke-width: 1.0;" width="6" x="803.5" y="299.8428"/><text fill="#000000" font-family="sans-serif" font-size="11" lengthAdjust="spacingAndGlyphs" textLength="49" x="815.5" y="305.5">lastName</text><text fill="#000000" font-family="sans-serif" font-size="11" font-weight="bold" lengthAdjust="spacingAndGlyphs" textLength="36" x="867.5" y="305.5">:String</text><rect fill="none" height="6" style="stroke: #C82930; stroke-width: 1.0;" width="6" x="803.5" y="312.7979"/><text fill="#000000" font-family="sans-serif" font-size="11" lengthAdjust="spacingAndGlyphs" textLength="28" x="815.5" y="318.4551">email</text><text fill="#000000" font-family="sans-serif" font-size="11" font-weight="bold" lengthAdjust="spacingAndGlyphs" textLength="36" x="846.5" y="318.4551">:String</text><rect fill="none" height="6" style="stroke: #C82930; stroke-width: 1.0;" width="6" x="803.5" y="325.7529"/><text fill="#000000" font-family="sans-serif" font-size="11" lengthAdjust="spacingAndGlyphs" textLength="52" x="815.5" y="331.4102">password</text><text fill="#000000" font-family="sans-serif" font-size="11" font-weight="bold" lengthAdjust="spacingAndGlyphs" textLength="36" x="870.5" y="331.4102">:String</text><rect fill="none" height="6" style="stroke: #C82930; stroke-width: 1.0;" width="6" x="803.5" y="338.708"/><text fill="#000000" font-family="sans-serif" font-size="11" lengthAdjust="spacingAndGlyphs" textLength="34" x="815.5" y="344.3652">phone</text><text fill="#000000" font-family="sans-serif" font-size="11" font-weight="bold" lengthAdjust="spacingAndGlyphs" textLength="36" x="852.5" y="344.3652">:String</text><rect fill="none" height="6" style="stroke: #C82930; stroke-width: 1.0;" width="6" x="803.5" y="351.6631"/><text fill="#000000" font-family="sans-serif" font-size="11" lengthAdjust="spacingAndGlyphs" textLength="57" x="815.5" y="357.3203">userStatus</text><text fill="#000000" font-family="sans-serif" font-size="11" font-weight="bold" lengthAdjust="spacingAndGlyphs" textLength="32" x="875.5" y="357.3203">:Int32</text><line style="stroke: #696969; stroke-width: 1.5;" x1="796.5" x2="912.5" y1="363.6406" y2="363.6406"/><rect fill="#98FB98" filter="url(#f1)" height="73.9102" style="stroke: #696969; stroke-width: 1.5;" width="94" x="405.5" y="432"/><ellipse cx="438.5" cy="448" fill="#ADD1B2" rx="11" ry="11" style="stroke: #696969; stroke-width: 1.0;"/><path d="M441.4731,453.6431 Q440.8921,453.9419 440.2529,454.0913 Q439.6138,454.2407 438.9082,454.2407 Q436.4014,454.2407 435.0815,452.5889 Q433.7617,450.937 433.7617,447.8159 Q433.7617,444.6865 435.0815,443.0347 Q436.4014,441.3828 438.9082,441.3828 Q439.6138,441.3828 440.2612,441.5322 Q440.9087,441.6816 441.4731,441.9805 L441.4731,444.7031 Q440.8423,444.1221 440.2488,443.8523 Q439.6553,443.5825 439.0244,443.5825 Q437.6797,443.5825 436.9949,444.6492 Q436.3101,445.7158 436.3101,447.8159 Q436.3101,449.9077 436.9949,450.9744 Q437.6797,452.041 439.0244,452.041 Q439.6553,452.041 440.2488,451.7712 Q440.8423,451.5015 441.4731,450.9204 Z "/><text fill="#000000" font-family="sans-serif" font-size="12" lengthAdjust="spacingAndGlyphs" textLength="22" x="456.5" y="452.5352">Tag</text><line style="stroke: #696969; stroke-width: 1.5;" x1="406.5" x2="498.5" y1="464" y2="464"/><rect fill="none" height="6" style="stroke: #C82930; stroke-width: 1.0;" width="6" x="413.5" y="472.9775"/><text fill="#000000" font-family="sans-serif" font-size="11" lengthAdjust="spacingAndGlyphs" textLength="10" x="425.5" y="478.6348">id</text><text fill="#000000" font-family="sans-serif" font-size="11" font-weight="bold" lengthAdjust="spacingAndGlyphs" textLength="32" x="438.5" y="478.6348">:Int64</text><rect fill="none" height="6" style="stroke: #C82930; stroke-width: 1.0;" width="6" x="413.5" y="485.9326"/><text fill="#000000" font-family="sans-serif" font-size="11" lengthAdjust="spacingAndGlyphs" textLength="29" x="425.5" y="491.5898">name</text><text fill="#000000" font-family="sans-serif" font-size="11" font-weight="bold" lengthAdjust="spacingAndGlyphs" textLength="36" x="457.5" y="491.5898">:String</text><line style="stroke: #696969; stroke-width: 1.5;" x1="406.5" x2="498.5" y1="497.9102" y2="497.9102"/><rect fill="#98FB98" filter="url(#f1)" height="125.7305" style="stroke: #696969; stroke-width: 1.5;" width="136" x="319.5" y="233"/><ellipse cx="374.25" cy="249" fill="#ADD1B2" rx="11" ry="11" style="stroke: #696969; stroke-width: 1.0;"/><path d="M377.2231,254.6431 Q376.6421,254.9419 376.0029,255.0913 Q375.3638,255.2407 374.6582,255.2407 Q372.1514,255.2407 370.8315,253.5889 Q369.5117,251.937 369.5117,248.8159 Q369.5117,245.6865 370.8315,244.0347 Q372.1514,242.3828 374.6582,242.3828 Q375.3638,242.3828 376.0112,242.5322 Q376.6587,242.6816 377.2231,242.9805 L377.2231,245.7031 Q376.5923,245.1221 375.9988,244.8523 Q375.4053,244.5825 374.7744,244.5825 Q373.4297,244.5825 372.7449,245.6492 Q372.0601,246.7158 372.0601,248.8159 Q372.0601,250.9077 372.7449,251.9744 Q373.4297,253.041 374.7744,253.041 Q375.4053,253.041 375.9988,252.7712 Q376.5923,252.5015 377.2231,251.9204 Z "/><text fill="#000000" font-family="sans-serif" font-size="12" lengthAdjust="spacingAndGlyphs" textLength="18" x="394.75" y="253.5352">Pet</text><line style="stroke: #696969; stroke-width: 1.5;" x1="320.5" x2="454.5" y1="265" y2="265"/><rect fill="none" height="6" style="stroke: #C82930; stroke-width: 1.0;" width="6" x="327.5" y="273.9775"/><text fill="#000000" font-family="sans-serif" font-size="11" lengthAdjust="spacingAndGlyphs" textLength="10" x="339.5" y="279.6348">id</text><text fill="#000000" font-family="sans-serif" font-size="11" font-weight="bold" lengthAdjust="spacingAndGlyphs" textLength="32" x="352.5" y="279.6348">:Int64</text><rect fill="none" height="6" style="stroke: #C82930; stroke-width: 1.0;" width="6" x="327.5" y="286.9326"/><text fill="#000000" font-family="sans-serif" font-size="11" lengthAdjust="spacingAndGlyphs" textLength="47" x="339.5" y="292.5898">category</text><text fill="#000000" font-family="sans-serif" font-size="11" font-weight="bold" lengthAdjust="spacingAndGlyphs" textLength="60" x="389.5" y="292.5898">:Category[]</text><rect fill="none" height="6" style="stroke: #C82930; stroke-width: 1.0;" width="6" x="327.5" y="299.8877"/><text fill="#000000" font-family="sans-serif" font-size="11" lengthAdjust="spacingAndGlyphs" textLength="29" x="339.5" y="305.5449">name</text><text fill="#000000" font-family="sans-serif" font-size="11" font-weight="bold" lengthAdjust="spacingAndGlyphs" textLength="36" x="371.5" y="305.5449">:String</text><rect fill="none" height="6" style="stroke: #C82930; stroke-width: 1.0;" width="6" x="327.5" y="312.8428"/><text fill="#000000" font-family="sans-serif" font-size="11" lengthAdjust="spacingAndGlyphs" textLength="54" x="339.5" y="318.5">photoUrls</text><text fill="#000000" font-family="sans-serif" font-size="11" font-weight="bold" lengthAdjust="spacingAndGlyphs" textLength="44" x="396.5" y="318.5">:String[]</text><rect fill="none" height="6" style="stroke: #C82930; stroke-width: 1.0;" width="6" x="327.5" y="325.7979"/><text fill="#000000" font-family="sans-serif" font-size="11" lengthAdjust="spacingAndGlyphs" textLength="23" x="339.5" y="331.4551">tags</text><text fill="#000000" font-family="sans-serif" font-size="11" font-weight="bold" lengthAdjust="spacingAndGlyphs" textLength="32" x="365.5" y="331.4551">:Tag[]</text><rect fill="none" height="6" style="stroke: #C82930; stroke-width: 1.0;" width="6" x="327.5" y="338.7529"/><text fill="#000000" font-family="sans-serif" font-size="11" lengthAdjust="spacingAndGlyphs" textLength="33" x="339.5" y="344.4102">status</text><text fill="#000000" font-family="sans-serif" font-size="11" font-weight="bold" lengthAdjust="spacingAndGlyphs" textLength="36" x="375.5" y="344.4102">:String</text><line style="stroke: #696969; stroke-width: 1.5;" x1="320.5" x2="454.5" y1="350.7305" y2="350.7305"/><rect fill="#98FB98" filter="url(#f1)" height="86.8652" style="stroke: #696969; stroke-width: 1.5;" width="112" x="490.5" y="252.5"/><ellipse cx="507.75" cy="268.5" fill="#ADD1B2" rx="11" ry="11" style="stroke: #696969; stroke-width: 1.0;"/><path d="M510.7231,274.1431 Q510.1421,274.4419 509.5029,274.5913 Q508.8638,274.7407 508.1582,274.7407 Q505.6514,274.7407 504.3315,273.0889 Q503.0117,271.437 503.0117,268.3159 Q503.0117,265.1865 504.3315,263.5347 Q505.6514,261.8828 508.1582,261.8828 Q508.8638,261.8828 509.5112,262.0322 Q510.1587,262.1816 510.7231,262.4805 L510.7231,265.2031 Q510.0923,264.6221 509.4988,264.3523 Q508.9053,264.0825 508.2744,264.0825 Q506.9297,264.0825 506.2449,265.1492 Q505.5601,266.2158 505.5601,268.3159 Q505.5601,270.4077 506.2449,271.4744 Q506.9297,272.541 508.2744,272.541 Q508.9053,272.541 509.4988,272.2712 Q510.0923,272.0015 510.7231,271.4204 Z "/><text fill="#000000" font-family="sans-serif" font-size="12" lengthAdjust="spacingAndGlyphs" textLength="75" x="522.25" y="273.0352">ApiResponse</text><line style="stroke: #696969; stroke-width: 1.5;" x1="491.5" x2="601.5" y1="284.5" y2="284.5"/><rect fill="none" height="6" style="stroke: #C82930; stroke-width: 1.0;" width="6" x="498.5" y="293.4775"/><text fill="#000000" font-family="sans-serif" font-size="11" lengthAdjust="spacingAndGlyphs" textLength="26" x="510.5" y="299.1348">code</text><text fill="#000000" font-family="sans-serif" font-size="11" font-weight="bold" lengthAdjust="spacingAndGlyphs" textLength="32" x="539.5" y="299.1348">:Int32</text><rect fill="none" height="6" style="stroke: #C82930; stroke-width: 1.0;" width="6" x="498.5" y="306.4326"/><text fill="#000000" font-family="sans-serif" font-size="11" lengthAdjust="spacingAndGlyphs" textLength="23" x="510.5" y="312.0898">type</text><text fill="#000000" font-family="sans-serif" font-size="11" font-weight="bold" lengthAdjust="spacingAndGlyphs" textLength="36" x="536.5" y="312.0898">:String</text><rect fill="none" height="6" style="stroke: #C82930; stroke-width: 1.0;" width="6" x="498.5" y="319.3877"/><text fill="#000000" font-family="sans-serif" font-size="11" lengthAdjust="spacingAndGlyphs" textLength="47" x="510.5" y="325.0449">message</text><text fill="#000000" font-family="sans-serif" font-size="11" font-weight="bold" lengthAdjust="spacingAndGlyphs" textLength="36" x="560.5" y="325.0449">:String</text><line style="stroke: #696969; stroke-width: 1.5;" x1="491.5" x2="601.5" y1="331.3652" y2="331.3652"/><rect fill="#98FB98" filter="url(#f1)" height="151.6406" style="stroke: #696969; stroke-width: 1.5;" width="411" x="262" y="8"/><ellipse cx="444.75" cy="24" fill="#B4A7E5" rx="11" ry="11" style="stroke: #696969; stroke-width: 1.0;"/><path d="M440.6777,19.7651 L440.6777,17.6069 L448.0571,17.6069 L448.0571,19.7651 L445.5918,19.7651 L445.5918,27.8418 L448.0571,27.8418 L448.0571,30 L440.6777,30 L440.6777,27.8418 L443.1431,27.8418 L443.1431,19.7651 Z "/><text fill="#000000" font-family="sans-serif" font-size="12" font-style="italic" lengthAdjust="spacingAndGlyphs" textLength="37" x="465.25" y="28.5352">PetApi</text><line style="stroke: #696969; stroke-width: 1.5;" x1="263" x2="672" y1="40" y2="40"/><line style="stroke: #696969; stroke-width: 1.5;" x1="263" x2="672" y1="48" y2="48"/><ellipse cx="273" cy="59.9775" fill="#84BE84" rx="3" ry="3" style="stroke: #038048; stroke-width: 1.0;"/><text fill="#000000" font-family="sans-serif" font-size="11" font-style="italic" lengthAdjust="spacingAndGlyphs" textLength="107" x="282" y="62.6348">updatePet(Pet body)</text><text fill="#000000" font-family="sans-serif" font-size="11" font-weight="bold" lengthAdjust="spacingAndGlyphs" textLength="28" x="389" y="62.6348">:void</text><ellipse cx="273" cy="72.9326" fill="#84BE84" rx="3" ry="3" style="stroke: #038048; stroke-width: 1.0;"/><text fill="#000000" font-family="sans-serif" font-size="11" font-style="italic" lengthAdjust="spacingAndGlyphs" textLength="90" x="282" y="75.5898">addPet(Pet body)</text><text fill="#000000" font-family="sans-serif" font-size="11" font-weight="bold" lengthAdjust="spacingAndGlyphs" textLength="28" x="372" y="75.5898">:void</text><ellipse cx="273" cy="85.8877" fill="#84BE84" rx="3" ry="3" style="stroke: #038048; stroke-width: 1.0;"/><text fill="#000000" font-family="sans-serif" font-size="11" font-style="italic" lengthAdjust="spacingAndGlyphs" textLength="172" x="282" y="88.5449">findPetsByStatus(String[] status)</text><text fill="#000000" font-family="sans-serif" font-size="11" font-weight="bold" lengthAdjust="spacingAndGlyphs" textLength="28" x="454" y="88.5449">:Pet[]</text><ellipse cx="273" cy="98.8428" fill="#84BE84" rx="3" ry="3" style="stroke: #038048; stroke-width: 1.0;"/><text fill="#000000" font-family="sans-serif" font-size="11" font-style="italic" lengthAdjust="spacingAndGlyphs" textLength="155" x="282" y="101.5">findPetsByTags(String[] tags)</text><text fill="#000000" font-family="sans-serif" font-size="11" font-weight="bold" lengthAdjust="spacingAndGlyphs" textLength="28" x="437" y="101.5">:Pet[]</text><ellipse cx="273" cy="111.7979" fill="#84BE84" rx="3" ry="3" style="stroke: #038048; stroke-width: 1.0;"/><text fill="#000000" font-family="sans-serif" font-size="11" font-style="italic" lengthAdjust="spacingAndGlyphs" textLength="131" x="282" y="114.4551">getPetById(Integer petId)</text><text fill="#000000" font-family="sans-serif" font-size="11" font-weight="bold" lengthAdjust="spacingAndGlyphs" textLength="20" x="413" y="114.4551">:Pet</text><ellipse cx="273" cy="124.7529" fill="#84BE84" rx="3" ry="3" style="stroke: #038048; stroke-width: 1.0;"/><text fill="#000000" font-family="sans-serif" font-size="11" font-style="italic" lengthAdjust="spacingAndGlyphs" textLength="318" x="282" y="127.4102">updatePetWithForm(Integer petId,String name,String status)</text><text fill="#000000" font-family="sans-serif" font-size="11" font-weight="bold" lengthAdjust="spacingAndGlyphs" textLength="28" x="600" y="127.4102">:void</text><ellipse cx="273" cy="137.708" fill="#84BE84" rx="3" ry="3" style="stroke: #038048; stroke-width: 1.0;"/><text fill="#000000" font-family="sans-serif" font-size="11" font-style="italic" lengthAdjust="spacingAndGlyphs" textLength="124" x="282" y="140.3652">deletePet(Integer petId)</text><text fill="#000000" font-family="sans-serif" font-size="11" font-weight="bold" lengthAdjust="spacingAndGlyphs" textLength="28" x="406" y="140.3652">:void</text><ellipse cx="273" cy="150.6631" fill="#84BE84" rx="3" ry="3" style="stroke: #038048; stroke-width: 1.0;"/><text fill="#000000" font-family="sans-serif" font-size="11" font-style="italic" lengthAdjust="spacingAndGlyphs" textLength="310" x="282" y="153.3203">uploadFile(Integer petId,String additionalMetadata,File file)</text><text fill="#000000" font-family="sans-serif" font-size="11" font-weight="bold" lengthAdjust="spacingAndGlyphs" textLength="75" x="592" y="153.3203">:ApiResponse</text><rect fill="#98FB98" filter="url(#f1)" height="99.8203" style="stroke: #696969; stroke-width: 1.5;" width="221" x="6" y="34"/><ellipse cx="88.25" cy="50" fill="#B4A7E5" rx="11" ry="11" style="stroke: #696969; stroke-width: 1.0;"/><path d="M84.1777,45.7651 L84.1777,43.6069 L91.5571,43.6069 L91.5571,45.7651 L89.0918,45.7651 L89.0918,53.8418 L91.5571,53.8418 L91.5571,56 L84.1777,56 L84.1777,53.8418 L86.6431,53.8418 L86.6431,45.7651 Z "/><text fill="#000000" font-family="sans-serif" font-size="12" font-style="italic" lengthAdjust="spacingAndGlyphs" textLength="48" x="108.75" y="54.5352">StoreApi</text><line style="stroke: #696969; stroke-width: 1.5;" x1="7" x2="226" y1="66" y2="66"/><line style="stroke: #696969; stroke-width: 1.5;" x1="7" x2="226" y1="74" y2="74"/><ellipse cx="17" cy="85.9775" fill="#84BE84" rx="3" ry="3" style="stroke: #038048; stroke-width: 1.0;"/><text fill="#000000" font-family="sans-serif" font-size="11" font-style="italic" lengthAdjust="spacingAndGlyphs" textLength="76" x="26" y="88.6348">getInventory()</text><text fill="#000000" font-family="sans-serif" font-size="11" font-weight="bold" lengthAdjust="spacingAndGlyphs" textLength="28" x="102" y="88.6348">:void</text><ellipse cx="17" cy="98.9326" fill="#84BE84" rx="3" ry="3" style="stroke: #038048; stroke-width: 1.0;"/><text fill="#000000" font-family="sans-serif" font-size="11" font-style="italic" lengthAdjust="spacingAndGlyphs" textLength="130" x="26" y="101.5898">placeOrder(Order body)</text><text fill="#000000" font-family="sans-serif" font-size="11" font-weight="bold" lengthAdjust="spacingAndGlyphs" textLength="35" x="156" y="101.5898">:Order</text><ellipse cx="17" cy="111.8877" fill="#84BE84" rx="3" ry="3" style="stroke: #038048; stroke-width: 1.0;"/><text fill="#000000" font-family="sans-serif" font-size="11" font-style="italic" lengthAdjust="spacingAndGlyphs" textLength="160" x="26" y="114.5449">getOrderById(Integer orderId)</text><text fill="#000000" font-family="sans-serif" font-size="11" font-weight="bold" lengthAdjust="spacingAndGlyphs" textLength="35" x="186" y="114.5449">:Order</text><ellipse cx="17" cy="124.8428" fill="#84BE84" rx="3" ry="3" style="stroke: #038048; stroke-width: 1.0;"/><text fill="#000000" font-family="sans-serif" font-size="11" font-style="italic" lengthAdjust="spacingAndGlyphs" textLength="153" x="26" y="127.5">deleteOrder(Integer orderId)</text><text fill="#000000" font-family="sans-serif" font-size="11" font-weight="bold" lengthAdjust="spacingAndGlyphs" textLength="28" x="179" y="127.5">:void</text><rect fill="#98FB98" filter="url(#f1)" height="151.6406" style="stroke: #696969; stroke-width: 1.5;" width="292" x="708.5" y="8"/><ellipse cx="827.75" cy="24" fill="#B4A7E5" rx="11" ry="11" style="stroke: #696969; stroke-width: 1.0;"/><path d="M823.6777,19.7651 L823.6777,17.6069 L831.0571,17.6069 L831.0571,19.7651 L828.5918,19.7651 L828.5918,27.8418 L831.0571,27.8418 L831.0571,30 L823.6777,30 L823.6777,27.8418 L826.1431,27.8418 L826.1431,19.7651 Z "/><text fill="#000000" font-family="sans-serif" font-size="12" font-style="italic" lengthAdjust="spacingAndGlyphs" textLength="45" x="848.25" y="28.5352">UserApi</text><line style="stroke: #696969; stroke-width: 1.5;" x1="709.5" x2="999.5" y1="40" y2="40"/><line style="stroke: #696969; stroke-width: 1.5;" x1="709.5" x2="999.5" y1="48" y2="48"/><ellipse cx="719.5" cy="59.9775" fill="#84BE84" rx="3" ry="3" style="stroke: #038048; stroke-width: 1.0;"/><text fill="#000000" font-family="sans-serif" font-size="11" font-style="italic" lengthAdjust="spacingAndGlyphs" textLength="121" x="728.5" y="62.6348">createUser(User body)</text><text fill="#000000" font-family="sans-serif" font-size="11" font-weight="bold" lengthAdjust="spacingAndGlyphs" textLength="28" x="849.5" y="62.6348">:void</text><ellipse cx="719.5" cy="72.9326" fill="#84BE84" rx="3" ry="3" style="stroke: #038048; stroke-width: 1.0;"/><text fill="#000000" font-family="sans-serif" font-size="11" font-style="italic" lengthAdjust="spacingAndGlyphs" textLength="216" x="728.5" y="75.5898">createUsersWithArrayInput(User[] body)</text><text fill="#000000" font-family="sans-serif" font-size="11" font-weight="bold" lengthAdjust="spacingAndGlyphs" textLength="28" x="944.5" y="75.5898">:void</text><ellipse cx="719.5" cy="85.8877" fill="#84BE84" rx="3" ry="3" style="stroke: #038048; stroke-width: 1.0;"/><text fill="#000000" font-family="sans-serif" font-size="11" font-style="italic" lengthAdjust="spacingAndGlyphs" textLength="205" x="728.5" y="88.5449">createUsersWithListInput(User[] body)</text><text fill="#000000" font-family="sans-serif" font-size="11" font-weight="bold" lengthAdjust="spacingAndGlyphs" textLength="28" x="933.5" y="88.5449">:void</text><ellipse cx="719.5" cy="98.8428" fill="#84BE84" rx="3" ry="3" style="stroke: #038048; stroke-width: 1.0;"/><text fill="#000000" font-family="sans-serif" font-size="11" font-style="italic" lengthAdjust="spacingAndGlyphs" textLength="238" x="728.5" y="101.5">loginUser(String username,String password)</text><text fill="#000000" font-family="sans-serif" font-size="11" font-weight="bold" lengthAdjust="spacingAndGlyphs" textLength="28" x="966.5" y="101.5">:void</text><ellipse cx="719.5" cy="111.7979" fill="#84BE84" rx="3" ry="3" style="stroke: #038048; stroke-width: 1.0;"/><text fill="#000000" font-family="sans-serif" font-size="11" font-style="italic" lengthAdjust="spacingAndGlyphs" textLength="68" x="728.5" y="114.4551">logoutUser()</text><text fill="#000000" font-family="sans-serif" font-size="11" font-weight="bold" lengthAdjust="spacingAndGlyphs" textLength="28" x="796.5" y="114.4551">:void</text><ellipse cx="719.5" cy="124.7529" fill="#84BE84" rx="3" ry="3" style="stroke: #038048; stroke-width: 1.0;"/><text fill="#000000" font-family="sans-serif" font-size="11" font-style="italic" lengthAdjust="spacingAndGlyphs" textLength="180" x="728.5" y="127.4102">getUserByName(String username)</text><text fill="#000000" font-family="sans-serif" font-size="11" font-weight="bold" lengthAdjust="spacingAndGlyphs" textLength="28" x="908.5" y="127.4102">:User</text><ellipse cx="719.5" cy="137.708" fill="#84BE84" rx="3" ry="3" style="stroke: #038048; stroke-width: 1.0;"/><text fill="#000000" font-family="sans-serif" font-size="11" font-style="italic" lengthAdjust="spacingAndGlyphs" textLength="216" x="728.5" y="140.3652">updateUser(String username,User body)</text><text fill="#000000" font-family="sans-serif" font-size="11" font-weight="bold" lengthAdjust="spacingAndGlyphs" textLength="28" x="944.5" y="140.3652">:void</text><ellipse cx="719.5" cy="150.6631" fill="#84BE84" rx="3" ry="3" style="stroke: #038048; stroke-width: 1.0;"/><text fill="#000000" font-family="sans-serif" font-size="11" font-style="italic" lengthAdjust="spacingAndGlyphs" textLength="153" x="728.5" y="153.3203">deleteUser(String username)</text><text fill="#000000" font-family="sans-serif" font-size="11" font-weight="bold" lengthAdjust="spacingAndGlyphs" textLength="28" x="881.5" y="153.3203">:void</text><path d="M359.4164,371.9136 C351.708,392.7503 343.6918,414.419 337.1934,431.985 " fill="none" style="stroke: #4169E1; stroke-width: 1.0;"/><polygon fill="#4169E1" points="364.0322,359.4365,358.1989,363.6759,359.8686,370.691,365.7019,366.4516,364.0322,359.4365" style="stroke: #4169E1; stroke-width: 1.0;"/><text fill="#000000" font-family="sans-serif" font-size="13" lengthAdjust="spacingAndGlyphs" textLength="22" x="315.69" y="421.3828">0..*</text><path d="M415.9122,371.6202 C423.7748,392.5467 431.9617,414.3365 438.5926,431.985 " fill="none" style="stroke: #4169E1; stroke-width: 1.0;"/><polygon fill="#4169E1" points="411.3345,359.4365,409.7004,366.46,415.5552,370.6697,417.1893,363.6462,411.3345,359.4365" style="stroke: #4169E1; stroke-width: 1.0;"/><text fill="#000000" font-family="sans-serif" font-size="13" lengthAdjust="spacingAndGlyphs" textLength="22" x="412.0003" y="421.3828">0..*</text><path d="M438.7312,160.2374 C430.3604,182.4199 421.2755,206.4948 413.1129,228.1259 " fill="none" style="stroke: #4169E1; stroke-width: 1.0;"/><polygon fill="#4169E1" points="411.2774,232.99,418.1973,225.9818,413.0427,228.312,410.7125,223.1574,411.2774,232.99" style="stroke: #4169E1; stroke-width: 1.0;"/><path d="M495.9092,160.2374 C506.7781,189.4047 518.8663,221.8436 528.5002,247.6969 " fill="none" style="stroke: #4169E1; stroke-width: 1.0;"/><polygon fill="#4169E1" points="530.2697,252.4453,530.8754,242.6151,528.5238,247.76,523.3789,245.4085,530.2697,252.4453" style="stroke: #4169E1; stroke-width: 1.0;"/><path d="M116.5,134.241 C116.5,162.1362 116.5,197.2336 116.5,227.6008 " fill="none" style="stroke: #4169E1; stroke-width: 1.0;"/><polygon fill="#4169E1" points="116.5,232.8214,120.5,223.8214,116.5,227.8214,112.5,223.8214,116.5,232.8214" style="stroke: #4169E1; stroke-width: 1.0;"/><path d="M854.5,160.2374 C854.5,177.9239 854.5,196.8134 854.5,214.708 " fill="none" style="stroke: #4169E1; stroke-width: 1.0;"/><polygon fill="#4169E1" points="854.5,219.727,858.5,210.727,854.5,214.727,850.5,210.727,854.5,219.727" style="stroke: #4169E1; stroke-width: 1.0;"/></g></svg>